<svg height="512" viewBox="0 0 512 512" width="512" xmlns="http://www.w3.org/2000/svg"><g id="Filled_outline" data-name="Filled outline"><path d="m480 144h-20.328a7.951 7.951 0 0 1 -7.687-5.8 111.385 111.385 0 0 0 -10.554-25.48 7.957 7.957 0 0 1 1.33-9.544l14.376-14.376a8 8 0 0 0 0-11.314l-22.627-22.623a8 8 0 0 0 -11.314 0l-14.376 14.376a7.957 7.957 0 0 1 -9.544 1.33 111.385 111.385 0 0 0 -25.476-10.554 7.953 7.953 0 0 1 -5.8-7.687v-20.328a8 8 0 0 0 -8-8h-32a8 8 0 0 0 -8 8v20.328a7.953 7.953 0 0 1 -5.8 7.687 111.385 111.385 0 0 0 -25.48 10.554 7.957 7.957 0 0 1 -9.544-1.33l-14.376-14.376a8 8 0 0 0 -11.314 0l-22.623 22.627a8 8 0 0 0 0 11.314l14.376 14.376a7.957 7.957 0 0 1 1.33 9.544 111.385 111.385 0 0 0 -10.554 25.48 7.951 7.951 0 0 1 -7.687 5.8h-20.328a8 8 0 0 0 -8 8v32a8 8 0 0 0 8 8h20.328a7.951 7.951 0 0 1 7.687 5.8 111.385 111.385 0 0 0 10.554 25.48 7.957 7.957 0 0 1 -1.33 9.544l-14.376 14.372a8 8 0 0 0 0 11.314l22.627 22.627a8 8 0 0 0 11.314 0l14.376-14.376a7.957 7.957 0 0 1 9.544-1.33 111.385 111.385 0 0 0 25.48 10.554 7.952 7.952 0 0 1 5.8 7.687v20.324a8 8 0 0 0 8 8h32a8 8 0 0 0 8-8v-20.328a7.952 7.952 0 0 1 5.8-7.687 111.385 111.385 0 0 0 25.48-10.554 7.957 7.957 0 0 1 9.544 1.33l14.372 14.376a8 8 0 0 0 11.314 0l22.627-22.627a8 8 0 0 0 0-11.314l-14.38-14.376a7.957 7.957 0 0 1 -1.33-9.544 111.385 111.385 0 0 0 10.554-25.48 7.951 7.951 0 0 1 7.687-5.8h20.328a8 8 0 0 0 8-8v-31.996a8 8 0 0 0 -8-8zm-136 64a40 40 0 1 1 40-40 40 40 0 0 1 -40 40z" fill="#86b63b"/><path d="m473.646 416a56.1 56.1 0 0 0 -1.527-12.975l15.881-9.169-16-27.712-15.892 9.175a55.923 55.923 0 0 0 -22.462-12.987v-18.332h-32v18.332a55.923 55.923 0 0 0 -22.462 12.987l-15.892-9.175-16 27.712 15.882 9.169a55.853 55.853 0 0 0 0 25.95l-15.882 9.169 16 27.712 15.892-9.175a55.923 55.923 0 0 0 22.462 12.987v18.332h32v-18.332a55.923 55.923 0 0 0 22.462-12.987l15.892 9.175 16-27.712-15.881-9.169a56.1 56.1 0 0 0 1.527-12.975zm-56 24a24 24 0 1 1 24-24 24 24 0 0 1 -24 24z" fill="#86b63b"/><path d="m152 248h64v64h-64z" fill="#fdb683"/><path d="m104 312h160v176h-160z" fill="#ffb431"/><path d="m232 312-31.06 77.65-16.94 42.35-16.94-42.35-31.06-77.65z" fill="#dfdfdd"/><path d="m200.94 389.65-16.94 42.35-16.94-42.35 8.94-53.65-8-24h32l-8 24z" fill="#86b63b"/><path d="m112 216a64 64 0 0 0 64 64h16.35a63.65 63.65 0 0 0 63.65-63.65v-88.35h-144z" fill="#fdbf92"/><path d="m104 216h8v-48h-8a24 24 0 0 0 -24 24 24 24 0 0 0 24 24z" fill="#fdb683"/><path d="m264 168h-8v48h8a24 24 0 0 0 24-24 24 24 0 0 0 -24-24z" fill="#fdb683"/><path d="m112 128v40l32-40z" fill="#375e8d"/><path d="m256 128h-32l32 40z" fill="#375e8d"/><path d="m264.979 145.669-45.643 5.071a205.717 205.717 0 0 1 -22.742 1.26h-25.188a205.717 205.717 0 0 1 -22.742-1.26l-45.643-5.071a16.887 16.887 0 0 1 -15.021-16.783 16.886 16.886 0 0 1 16.886-16.886h158.228a16.886 16.886 0 0 1 16.886 16.886 16.887 16.887 0 0 1 -15.021 16.783z" fill="#ffb431"/><path d="m264 96v16h-160v-16a63.968 63.968 0 0 1 64-64h32a63.981 63.981 0 0 1 64 64z" fill="#fcab1e"/><path d="m168 24h32v88h-32z" fill="#ffb431"/><path d="m264 312h16a32 32 0 0 1 32 32v120a24 24 0 0 1 -24 24h-24z" fill="#dfdfdd"/><path d="m88 312h16a0 0 0 0 1 0 0v176a0 0 0 0 1 0 0h-24a24 24 0 0 1 -24-24v-120a32 32 0 0 1 32-32z" fill="#dfdfdd"/><path d="m240 424-128 64h-32a24 24 0 0 1 -24-24v-40l184-48z" fill="#d5d5d3"/><path d="m240 376h72v64h-40l-32-16z" fill="#fdbf92"/><path d="m24 256h48v232h-48z" fill="#375e8d"/><circle cx="48" cy="256" fill="#2b4c73" r="24"/><path d="m104 432 152 56h32a24 24 0 0 0 24-24v-40l-208-48z" fill="#dfdfdd"/><path d="m104 376-32-24v24h-48v56h80z" fill="#fdbf92"/><path d="m344 216a48 48 0 1 0 -48-48 48.055 48.055 0 0 0 48 48zm0-80a32 32 0 1 1 -32 32 32.036 32.036 0 0 1 32-32zm152 16v32a16.019 16.019 0 0 1 -16 16h-20.33a119.1 119.1 0 0 1 -11.246 27.164l14.376 14.379a16.005 16.005 0 0 1 0 22.624l-22.633 22.633a16.016 16.016 0 0 1 -22.623 0l-14.381-14.38a118.906 118.906 0 0 1 -27.244 11.277l.081 20.303a16.019 16.019 0 0 1 -16 16h-32a16.019 16.019 0 0 1 -16-16v-20.33a119.172 119.172 0 0 1 -27.231-11.283l-14.312 14.413-11.314-11.314 14.379-14.38a15.992 15.992 0 0 1 19.148-2.629 103.48 103.48 0 0 0 23.649 9.792 15.989 15.989 0 0 1 11.681 15.401v20.33h32v-20.33a15.988 15.988 0 0 1 11.676-15.4 103.447 103.447 0 0 0 23.653-9.793 15.993 15.993 0 0 1 19.148 2.629l14.38 14.38 22.625-22.63-14.382-14.379a15.976 15.976 0 0 1 -2.622-19.163 103.346 103.346 0 0 0 9.786-23.634 15.987 15.987 0 0 1 15.406-11.68h20.33v-32h-20.33a15.985 15.985 0 0 1 -15.4-11.677 103.432 103.432 0 0 0 -9.794-23.651 15.968 15.968 0 0 1 2.624-19.148l14.379-14.381-22.626-22.626-14.375 14.383a15.976 15.976 0 0 1 -19.165 2.62 103.414 103.414 0 0 0 -23.632-9.783 15.989 15.989 0 0 1 -11.681-15.407v-20.33h-32v20.33a15.988 15.988 0 0 1 -11.676 15.4 103.447 103.447 0 0 0 -23.653 9.793l-7.9-13.913a119.421 119.421 0 0 1 27.312-11.307l-.083-20.303a16.019 16.019 0 0 1 16-16h32a16.019 16.019 0 0 1 16 16v20.33a119.17 119.17 0 0 1 27.165 11.246l14.378-14.376a16.016 16.016 0 0 1 22.623 0l22.634 22.633a16.005 16.005 0 0 1 0 22.624l-14.374 14.375a119.365 119.365 0 0 1 11.272 27.248l20.302-.08a16.019 16.019 0 0 1 16 16zm-209.277 82.815 10.425-12.136a72.168 72.168 0 0 0 86.553 5.4l8.838 13.338a88.221 88.221 0 0 1 -105.816-6.6zm108.188-15.9a72.009 72.009 0 0 0 -90.611-110.997l-8.838-13.337a88.008 88.008 0 0 1 110.764 135.644zm-9.265 197.085a32 32 0 1 0 32-32 32.037 32.037 0 0 0 -32 32zm48 0a16 16 0 1 1 -16-16 16.018 16.018 0 0 1 16 16zm-90.353 15.215 10.977-6.337a63.468 63.468 0 0 1 0-17.756l-10.977-6.337a8 8 0 0 1 -2.928-10.929l16-27.712a8 8 0 0 1 10.928-2.929l10.988 6.345a64.439 64.439 0 0 1 15.365-8.888v-12.672a8 8 0 0 1 8-8h32a8 8 0 0 1 8 8v12.672a64.459 64.459 0 0 1 15.366 8.888l10.988-6.345a8 8 0 0 1 10.928 2.929l16 27.712a8 8 0 0 1 -2.928 10.929l-10.977 6.337a63.569 63.569 0 0 1 0 17.756l10.977 6.337a8 8 0 0 1 2.928 10.929l-16 27.712a8 8 0 0 1 -10.928 2.929l-15.892-9.176 8-13.856 8.964 5.175 8-13.856-8.953-5.169a8 8 0 0 1 -3.784-8.775 47.884 47.884 0 0 0 0-22.256 8 8 0 0 1 3.784-8.775l8.953-5.169-8-13.856-8.964 5.175a8 8 0 0 1 -9.5-1.116 48.157 48.157 0 0 0 -19.245-11.131 8 8 0 0 1 -5.717-7.668v-10.332h-16v10.332a8 8 0 0 1 -5.716 7.668 48.152 48.152 0 0 0 -19.248 11.131 8 8 0 0 1 -9.5 1.116l-8.964-5.175-8 13.856 8.953 5.169a8 8 0 0 1 3.783 8.777 47.867 47.867 0 0 0 0 22.252 8 8 0 0 1 -3.783 8.777l-8.953 5.169 8 13.856 8.964-5.175a8 8 0 0 1 9.5 1.116 48.152 48.152 0 0 0 19.248 11.131 8 8 0 0 1 5.716 7.668v10.332h16v-10.332h16v18.332a8 8 0 0 1 -8 8h-32a8 8 0 0 1 -8-8v-12.672a64.439 64.439 0 0 1 -15.365-8.888l-10.988 6.345a8 8 0 0 1 -10.928-2.929l-16-27.712a8 8 0 0 1 2.928-10.929zm50.546-108.647-3.678-15.568a112.2 112.2 0 0 1 103.378 28.185l-11.078 11.544a95.54 95.54 0 0 0 -66.461-26.729 96.535 96.535 0 0 0 -22.161 2.568zm104.4-254.937-13.4 8.738a170.124 170.124 0 0 0 -49.205-49.2l8.738-13.4a183.64 183.64 0 0 1 53.866 53.862zm-298.239 108.369a16 16 0 1 1 16 16 16.019 16.019 0 0 1 -16-16zm-48 16a16 16 0 1 1 16-16 16.019 16.019 0 0 1 -16 16zm12.438 25.344a35.174 35.174 0 0 0 39.124 0l8.876 13.312a51.131 51.131 0 0 1 -56.876 0zm-140.438 278.656h264a32.036 32.036 0 0 0 32-32v-8h-16v8a16.019 16.019 0 0 1 -16 16h-30.573l-145.427-53.578v-40.365l192 44.307v9.636h16v-96a40.045 40.045 0 0 0 -40-40h-56v-23.349a71.234 71.234 0 0 0 39.591-56.651h.409a32 32 0 0 0 0-64v-6.173l1.862-.207a24.883 24.883 0 0 0 6.138-47.974v-9.646a71.93 71.93 0 0 0 -64-71.547v-.453a8 8 0 0 0 -8-8h-32a8 8 0 0 0 -8 8v.453a71.908 71.908 0 0 0 -54.365 35.547l13.849 8.01a56.209 56.209 0 0 1 8.516-11.183v31.173h16v-42.606a55.829 55.829 0 0 1 16-4.816v63.422h-48v-8a56.271 56.271 0 0 1 1.764-14.007l-15.5-3.986a72.271 72.271 0 0 0 -2.264 17.993v9.646a24.883 24.883 0 0 0 6.138 47.974l1.862.207v6.173a32 32 0 0 0 0 64h.44a71.58 71.58 0 0 0 39.56 56.515v23.485h-56a40.108 40.108 0 0 0 -8 .813v-48.813a32 32 0 0 0 -64 0v48h16v-20.3a31.885 31.885 0 0 0 32 0v84.3h-32v-48h-16v168a8 8 0 0 0 8 8zm80-288a16 16 0 0 1 0-32zm59.869 152.126-16.053-40.126h14.418l5.548 16.645zm-3.869-56.126v-17.8a72 72 0 0 0 16 1.8h16.35a71.754 71.754 0 0 0 15.65-1.732v17.732zm28.9 16-4.49 13.47a8.036 8.036 0 0 0 -.41 2.523 8.036 8.036 0 0 0 -.41-2.523l-4.49-13.47zm-12.858 64.413 7.85-47.1a8 8 0 0 0 .108-1.309 8 8 0 0 0 .108 1.309l7.189 43.123zm24.176-47.768 5.548-16.645h14.419l-16.051 40.137zm31.782 60.683-22.312-5.149 22.312-5.823zm72 16.616-56-12.923v-17.021h56zm-32-93.944h8a24.028 24.028 0 0 1 24 24v24h-32zm-34.583 0h18.583v48h-14.949a16.024 16.024 0 0 0 -4.036.517l-21.215 5.531zm42.583-128a16.019 16.019 0 0 1 -16 16v-32a16.019 16.019 0 0 1 16 16zm-72-151.422a55.857 55.857 0 0 1 16 4.816v42.606h16v-31.17a56.2 56.2 0 0 1 16 39.17v8h-48zm-32-8.578h16v72h-16zm-72.095 105.718a8.886 8.886 0 0 1 .981-17.718h158.228a8.886 8.886 0 0 1 .981 17.718l-45.643 5.071a198.485 198.485 0 0 1 -21.852 1.211h-25.19a198.485 198.485 0 0 1 -21.857-1.211zm16.095 78.282v-45.194l11.167-13.96 16.613 1.845a214.573 214.573 0 0 0 23.625 1.309h25.195a214.573 214.573 0 0 0 23.625-1.309l16.613-1.845 11.162 13.96v45.544a55.6 55.6 0 0 1 -55.65 55.65h-16.35a55.97 55.97 0 0 1 -56-56zm-8 104h18.584l23.762 59.408-42.346-9.772zm80 152.947 19.145 7.053h-19.145zm-16-5.895v12.948h-30.116l27.684-13.844zm-23.03-8.485-42.859 21.433h-30.111v-40h22.573zm-72.97-137.19a24.07 24.07 0 0 1 8-1.377h8v40l-16-12zm-32-49.377a16 16 0 1 1 16-16 16.019 16.019 0 0 1 -16 16zm-16 112h40a8 8 0 0 0 8-8v-8l16 12v44h-64zm0 56h32v40h-32zm96-16v-16h16v16z"/></g></svg>